<mxfile host="app.diagrams.net" modified="2024-07-08T12:35:04.310Z" agent="Mozilla/5.0 (Macintosh; Intel Mac OS X 10_15_7) AppleWebKit/537.36 (KHTML, like Gecko) Chrome/126.0.0.0 Safari/537.36 Edg/126.0.0.0" etag="BmdyFeIca9by1G5cDD8r" version="24.6.4" type="device" pages="3">
  <diagram name="Home" id="iWZwzt7MSsI_EGdAc2mg">
    <mxGraphModel dx="2253" dy="1551" grid="1" gridSize="10" guides="1" tooltips="1" connect="1" arrows="1" fold="1" page="1" pageScale="1" pageWidth="1169" pageHeight="827" math="0" shadow="0">
      <root>
        <mxCell id="0" />
        <mxCell id="1" parent="0" />
        <mxCell id="S5pw5Y8b530YtSFXcZSq-1" value="" style="rounded=0;whiteSpace=wrap;html=1;movable=0;resizable=0;rotatable=0;deletable=0;editable=0;locked=1;connectable=0;" vertex="1" parent="1">
          <mxGeometry x="190" y="140" width="820" height="490" as="geometry" />
        </mxCell>
        <mxCell id="S5pw5Y8b530YtSFXcZSq-2" value="" style="rounded=0;whiteSpace=wrap;html=1;" vertex="1" parent="1">
          <mxGeometry x="190" y="140" width="820" height="60" as="geometry" />
        </mxCell>
        <mxCell id="S5pw5Y8b530YtSFXcZSq-11" value="Gallery" style="text;html=1;align=center;verticalAlign=middle;whiteSpace=wrap;rounded=0;" vertex="1" parent="1">
          <mxGeometry x="570" y="230" width="60" height="30" as="geometry" />
        </mxCell>
        <mxCell id="S5pw5Y8b530YtSFXcZSq-12" value="Login" style="text;html=1;align=center;verticalAlign=middle;whiteSpace=wrap;rounded=0;" vertex="1" parent="1">
          <mxGeometry x="940" y="155" width="60" height="30" as="geometry" />
        </mxCell>
        <mxCell id="S5pw5Y8b530YtSFXcZSq-13" value="Admin" style="text;html=1;align=center;verticalAlign=middle;whiteSpace=wrap;rounded=0;" vertex="1" parent="1">
          <mxGeometry x="900" y="155" width="60" height="30" as="geometry" />
        </mxCell>
        <mxCell id="S5pw5Y8b530YtSFXcZSq-14" value="Home" style="text;html=1;align=center;verticalAlign=middle;whiteSpace=wrap;rounded=0;" vertex="1" parent="1">
          <mxGeometry x="210" y="155" width="60" height="30" as="geometry" />
        </mxCell>
        <mxCell id="S5pw5Y8b530YtSFXcZSq-19" value="" style="group" vertex="1" connectable="0" parent="1">
          <mxGeometry x="330" y="310" width="120" height="120" as="geometry" />
        </mxCell>
        <mxCell id="S5pw5Y8b530YtSFXcZSq-3" value="" style="whiteSpace=wrap;html=1;aspect=fixed;" vertex="1" parent="S5pw5Y8b530YtSFXcZSq-19">
          <mxGeometry width="120" height="120" as="geometry" />
        </mxCell>
        <mxCell id="S5pw5Y8b530YtSFXcZSq-15" value="" style="shape=mxgraph.sysml.x;" vertex="1" parent="S5pw5Y8b530YtSFXcZSq-19">
          <mxGeometry x="20" y="16" width="80" height="70" as="geometry" />
        </mxCell>
        <mxCell id="S5pw5Y8b530YtSFXcZSq-18" value="Eventname" style="text;html=1;align=center;verticalAlign=middle;whiteSpace=wrap;rounded=0;" vertex="1" parent="S5pw5Y8b530YtSFXcZSq-19">
          <mxGeometry x="30" y="90" width="60" height="30" as="geometry" />
        </mxCell>
        <mxCell id="S5pw5Y8b530YtSFXcZSq-20" value="" style="group" vertex="1" connectable="0" parent="1">
          <mxGeometry x="470" y="310" width="120" height="120" as="geometry" />
        </mxCell>
        <mxCell id="S5pw5Y8b530YtSFXcZSq-21" value="" style="whiteSpace=wrap;html=1;aspect=fixed;" vertex="1" parent="S5pw5Y8b530YtSFXcZSq-20">
          <mxGeometry width="120" height="120" as="geometry" />
        </mxCell>
        <mxCell id="S5pw5Y8b530YtSFXcZSq-22" value="" style="shape=mxgraph.sysml.x;" vertex="1" parent="S5pw5Y8b530YtSFXcZSq-20">
          <mxGeometry x="20" y="16" width="80" height="70" as="geometry" />
        </mxCell>
        <mxCell id="S5pw5Y8b530YtSFXcZSq-23" value="Eventname" style="text;html=1;align=center;verticalAlign=middle;whiteSpace=wrap;rounded=0;" vertex="1" parent="S5pw5Y8b530YtSFXcZSq-20">
          <mxGeometry x="30" y="90" width="60" height="30" as="geometry" />
        </mxCell>
        <mxCell id="S5pw5Y8b530YtSFXcZSq-24" value="" style="group" vertex="1" connectable="0" parent="1">
          <mxGeometry x="610" y="310" width="120" height="120" as="geometry" />
        </mxCell>
        <mxCell id="S5pw5Y8b530YtSFXcZSq-25" value="" style="whiteSpace=wrap;html=1;aspect=fixed;" vertex="1" parent="S5pw5Y8b530YtSFXcZSq-24">
          <mxGeometry width="120" height="120" as="geometry" />
        </mxCell>
        <mxCell id="S5pw5Y8b530YtSFXcZSq-26" value="" style="shape=mxgraph.sysml.x;" vertex="1" parent="S5pw5Y8b530YtSFXcZSq-24">
          <mxGeometry x="20" y="16" width="80" height="70" as="geometry" />
        </mxCell>
        <mxCell id="S5pw5Y8b530YtSFXcZSq-27" value="Eventname" style="text;html=1;align=center;verticalAlign=middle;whiteSpace=wrap;rounded=0;" vertex="1" parent="S5pw5Y8b530YtSFXcZSq-24">
          <mxGeometry x="30" y="90" width="60" height="30" as="geometry" />
        </mxCell>
        <mxCell id="S5pw5Y8b530YtSFXcZSq-28" value="" style="group" vertex="1" connectable="0" parent="1">
          <mxGeometry x="750" y="310" width="120" height="120" as="geometry" />
        </mxCell>
        <mxCell id="S5pw5Y8b530YtSFXcZSq-29" value="" style="whiteSpace=wrap;html=1;aspect=fixed;" vertex="1" parent="S5pw5Y8b530YtSFXcZSq-28">
          <mxGeometry width="120" height="120" as="geometry" />
        </mxCell>
        <mxCell id="S5pw5Y8b530YtSFXcZSq-30" value="" style="shape=mxgraph.sysml.x;" vertex="1" parent="S5pw5Y8b530YtSFXcZSq-28">
          <mxGeometry x="20" y="16" width="80" height="70" as="geometry" />
        </mxCell>
        <mxCell id="S5pw5Y8b530YtSFXcZSq-31" value="Eventname" style="text;html=1;align=center;verticalAlign=middle;whiteSpace=wrap;rounded=0;" vertex="1" parent="S5pw5Y8b530YtSFXcZSq-28">
          <mxGeometry x="30" y="90" width="60" height="30" as="geometry" />
        </mxCell>
        <mxCell id="S5pw5Y8b530YtSFXcZSq-36" value="" style="group" vertex="1" connectable="0" parent="1">
          <mxGeometry x="330" y="450" width="120" height="120" as="geometry" />
        </mxCell>
        <mxCell id="S5pw5Y8b530YtSFXcZSq-37" value="" style="whiteSpace=wrap;html=1;aspect=fixed;" vertex="1" parent="S5pw5Y8b530YtSFXcZSq-36">
          <mxGeometry width="120" height="120" as="geometry" />
        </mxCell>
        <mxCell id="S5pw5Y8b530YtSFXcZSq-38" value="" style="shape=mxgraph.sysml.x;" vertex="1" parent="S5pw5Y8b530YtSFXcZSq-36">
          <mxGeometry x="20" y="16" width="80" height="70" as="geometry" />
        </mxCell>
        <mxCell id="S5pw5Y8b530YtSFXcZSq-39" value="Eventname" style="text;html=1;align=center;verticalAlign=middle;whiteSpace=wrap;rounded=0;" vertex="1" parent="S5pw5Y8b530YtSFXcZSq-36">
          <mxGeometry x="30" y="90" width="60" height="30" as="geometry" />
        </mxCell>
        <mxCell id="S5pw5Y8b530YtSFXcZSq-40" value="" style="group" vertex="1" connectable="0" parent="1">
          <mxGeometry x="470" y="450" width="120" height="120" as="geometry" />
        </mxCell>
        <mxCell id="S5pw5Y8b530YtSFXcZSq-41" value="" style="whiteSpace=wrap;html=1;aspect=fixed;" vertex="1" parent="S5pw5Y8b530YtSFXcZSq-40">
          <mxGeometry width="120" height="120" as="geometry" />
        </mxCell>
        <mxCell id="S5pw5Y8b530YtSFXcZSq-42" value="" style="shape=mxgraph.sysml.x;" vertex="1" parent="S5pw5Y8b530YtSFXcZSq-40">
          <mxGeometry x="20" y="16" width="80" height="70" as="geometry" />
        </mxCell>
        <mxCell id="S5pw5Y8b530YtSFXcZSq-43" value="Eventname" style="text;html=1;align=center;verticalAlign=middle;whiteSpace=wrap;rounded=0;" vertex="1" parent="S5pw5Y8b530YtSFXcZSq-40">
          <mxGeometry x="30" y="90" width="60" height="30" as="geometry" />
        </mxCell>
        <mxCell id="S5pw5Y8b530YtSFXcZSq-44" value="" style="group" vertex="1" connectable="0" parent="1">
          <mxGeometry x="610" y="450" width="120" height="120" as="geometry" />
        </mxCell>
        <mxCell id="S5pw5Y8b530YtSFXcZSq-45" value="" style="whiteSpace=wrap;html=1;aspect=fixed;" vertex="1" parent="S5pw5Y8b530YtSFXcZSq-44">
          <mxGeometry width="120" height="120" as="geometry" />
        </mxCell>
        <mxCell id="S5pw5Y8b530YtSFXcZSq-46" value="" style="shape=mxgraph.sysml.x;" vertex="1" parent="S5pw5Y8b530YtSFXcZSq-44">
          <mxGeometry x="20" y="16" width="80" height="70" as="geometry" />
        </mxCell>
        <mxCell id="S5pw5Y8b530YtSFXcZSq-47" value="Eventname" style="text;html=1;align=center;verticalAlign=middle;whiteSpace=wrap;rounded=0;" vertex="1" parent="S5pw5Y8b530YtSFXcZSq-44">
          <mxGeometry x="30" y="90" width="60" height="30" as="geometry" />
        </mxCell>
        <mxCell id="S5pw5Y8b530YtSFXcZSq-48" value="" style="group" vertex="1" connectable="0" parent="1">
          <mxGeometry x="750" y="450" width="120" height="120" as="geometry" />
        </mxCell>
        <mxCell id="S5pw5Y8b530YtSFXcZSq-49" value="" style="whiteSpace=wrap;html=1;aspect=fixed;" vertex="1" parent="S5pw5Y8b530YtSFXcZSq-48">
          <mxGeometry width="120" height="120" as="geometry" />
        </mxCell>
        <mxCell id="S5pw5Y8b530YtSFXcZSq-50" value="" style="shape=mxgraph.sysml.x;" vertex="1" parent="S5pw5Y8b530YtSFXcZSq-48">
          <mxGeometry x="20" y="16" width="80" height="70" as="geometry" />
        </mxCell>
        <mxCell id="S5pw5Y8b530YtSFXcZSq-51" value="Eventname" style="text;html=1;align=center;verticalAlign=middle;whiteSpace=wrap;rounded=0;" vertex="1" parent="S5pw5Y8b530YtSFXcZSq-48">
          <mxGeometry x="30" y="90" width="60" height="30" as="geometry" />
        </mxCell>
      </root>
    </mxGraphModel>
  </diagram>
  <diagram name="Gallery" id="_P9nXn-fmoUTOq1PN0kG">
    <mxGraphModel dx="708" dy="487" grid="1" gridSize="10" guides="1" tooltips="1" connect="1" arrows="1" fold="1" page="1" pageScale="1" pageWidth="1169" pageHeight="827" math="0" shadow="0">
      <root>
        <mxCell id="lEZ9Ktoyej2CtSF3HPmZ-0" />
        <mxCell id="lEZ9Ktoyej2CtSF3HPmZ-1" parent="lEZ9Ktoyej2CtSF3HPmZ-0" />
        <mxCell id="lEZ9Ktoyej2CtSF3HPmZ-2" value="" style="rounded=0;whiteSpace=wrap;html=1;movable=0;resizable=0;rotatable=0;deletable=0;editable=0;locked=1;connectable=0;" vertex="1" parent="lEZ9Ktoyej2CtSF3HPmZ-1">
          <mxGeometry x="190" y="140" width="820" height="490" as="geometry" />
        </mxCell>
        <mxCell id="lEZ9Ktoyej2CtSF3HPmZ-3" value="" style="rounded=0;whiteSpace=wrap;html=1;" vertex="1" parent="lEZ9Ktoyej2CtSF3HPmZ-1">
          <mxGeometry x="190" y="140" width="820" height="60" as="geometry" />
        </mxCell>
        <mxCell id="lEZ9Ktoyej2CtSF3HPmZ-4" value="Event Name" style="text;html=1;align=center;verticalAlign=middle;whiteSpace=wrap;rounded=0;" vertex="1" parent="lEZ9Ktoyej2CtSF3HPmZ-1">
          <mxGeometry x="555" y="220" width="90" height="30" as="geometry" />
        </mxCell>
        <mxCell id="lEZ9Ktoyej2CtSF3HPmZ-5" value="Login" style="text;html=1;align=center;verticalAlign=middle;whiteSpace=wrap;rounded=0;" vertex="1" parent="lEZ9Ktoyej2CtSF3HPmZ-1">
          <mxGeometry x="940" y="155" width="60" height="30" as="geometry" />
        </mxCell>
        <mxCell id="lEZ9Ktoyej2CtSF3HPmZ-6" value="Admin" style="text;html=1;align=center;verticalAlign=middle;whiteSpace=wrap;rounded=0;" vertex="1" parent="lEZ9Ktoyej2CtSF3HPmZ-1">
          <mxGeometry x="900" y="155" width="60" height="30" as="geometry" />
        </mxCell>
        <mxCell id="lEZ9Ktoyej2CtSF3HPmZ-7" value="Home" style="text;html=1;align=center;verticalAlign=middle;whiteSpace=wrap;rounded=0;" vertex="1" parent="lEZ9Ktoyej2CtSF3HPmZ-1">
          <mxGeometry x="210" y="155" width="60" height="30" as="geometry" />
        </mxCell>
        <mxCell id="lEZ9Ktoyej2CtSF3HPmZ-8" value="" style="group" vertex="1" connectable="0" parent="lEZ9Ktoyej2CtSF3HPmZ-1">
          <mxGeometry x="330" y="310" width="120" height="120" as="geometry" />
        </mxCell>
        <mxCell id="lEZ9Ktoyej2CtSF3HPmZ-9" value="" style="whiteSpace=wrap;html=1;aspect=fixed;" vertex="1" parent="lEZ9Ktoyej2CtSF3HPmZ-8">
          <mxGeometry width="120" height="120" as="geometry" />
        </mxCell>
        <mxCell id="lEZ9Ktoyej2CtSF3HPmZ-10" value="" style="shape=mxgraph.sysml.x;" vertex="1" parent="lEZ9Ktoyej2CtSF3HPmZ-8">
          <mxGeometry x="20" y="16" width="80" height="70" as="geometry" />
        </mxCell>
        <mxCell id="lEZ9Ktoyej2CtSF3HPmZ-12" value="" style="group" vertex="1" connectable="0" parent="lEZ9Ktoyej2CtSF3HPmZ-1">
          <mxGeometry x="470" y="310" width="120" height="120" as="geometry" />
        </mxCell>
        <mxCell id="lEZ9Ktoyej2CtSF3HPmZ-13" value="" style="whiteSpace=wrap;html=1;aspect=fixed;" vertex="1" parent="lEZ9Ktoyej2CtSF3HPmZ-12">
          <mxGeometry width="120" height="120" as="geometry" />
        </mxCell>
        <mxCell id="lEZ9Ktoyej2CtSF3HPmZ-14" value="" style="shape=mxgraph.sysml.x;" vertex="1" parent="lEZ9Ktoyej2CtSF3HPmZ-12">
          <mxGeometry x="20" y="16" width="80" height="70" as="geometry" />
        </mxCell>
        <mxCell id="lEZ9Ktoyej2CtSF3HPmZ-16" value="" style="group" vertex="1" connectable="0" parent="lEZ9Ktoyej2CtSF3HPmZ-1">
          <mxGeometry x="610" y="310" width="120" height="120" as="geometry" />
        </mxCell>
        <mxCell id="lEZ9Ktoyej2CtSF3HPmZ-17" value="" style="whiteSpace=wrap;html=1;aspect=fixed;" vertex="1" parent="lEZ9Ktoyej2CtSF3HPmZ-16">
          <mxGeometry width="120" height="120" as="geometry" />
        </mxCell>
        <mxCell id="lEZ9Ktoyej2CtSF3HPmZ-18" value="" style="shape=mxgraph.sysml.x;" vertex="1" parent="lEZ9Ktoyej2CtSF3HPmZ-16">
          <mxGeometry x="20" y="16" width="80" height="70" as="geometry" />
        </mxCell>
        <mxCell id="lEZ9Ktoyej2CtSF3HPmZ-20" value="" style="group" vertex="1" connectable="0" parent="lEZ9Ktoyej2CtSF3HPmZ-1">
          <mxGeometry x="750" y="310" width="120" height="120" as="geometry" />
        </mxCell>
        <mxCell id="lEZ9Ktoyej2CtSF3HPmZ-21" value="" style="whiteSpace=wrap;html=1;aspect=fixed;" vertex="1" parent="lEZ9Ktoyej2CtSF3HPmZ-20">
          <mxGeometry width="120" height="120" as="geometry" />
        </mxCell>
        <mxCell id="lEZ9Ktoyej2CtSF3HPmZ-22" value="" style="shape=mxgraph.sysml.x;" vertex="1" parent="lEZ9Ktoyej2CtSF3HPmZ-20">
          <mxGeometry x="20" y="16" width="80" height="70" as="geometry" />
        </mxCell>
        <mxCell id="lEZ9Ktoyej2CtSF3HPmZ-24" value="" style="group" vertex="1" connectable="0" parent="lEZ9Ktoyej2CtSF3HPmZ-1">
          <mxGeometry x="330" y="450" width="120" height="120" as="geometry" />
        </mxCell>
        <mxCell id="lEZ9Ktoyej2CtSF3HPmZ-25" value="" style="whiteSpace=wrap;html=1;aspect=fixed;" vertex="1" parent="lEZ9Ktoyej2CtSF3HPmZ-24">
          <mxGeometry width="120" height="120" as="geometry" />
        </mxCell>
        <mxCell id="lEZ9Ktoyej2CtSF3HPmZ-26" value="" style="shape=mxgraph.sysml.x;" vertex="1" parent="lEZ9Ktoyej2CtSF3HPmZ-24">
          <mxGeometry x="20" y="16" width="80" height="70" as="geometry" />
        </mxCell>
        <mxCell id="lEZ9Ktoyej2CtSF3HPmZ-28" value="" style="group" vertex="1" connectable="0" parent="lEZ9Ktoyej2CtSF3HPmZ-1">
          <mxGeometry x="470" y="450" width="120" height="120" as="geometry" />
        </mxCell>
        <mxCell id="lEZ9Ktoyej2CtSF3HPmZ-29" value="" style="whiteSpace=wrap;html=1;aspect=fixed;" vertex="1" parent="lEZ9Ktoyej2CtSF3HPmZ-28">
          <mxGeometry width="120" height="120" as="geometry" />
        </mxCell>
        <mxCell id="lEZ9Ktoyej2CtSF3HPmZ-30" value="" style="shape=mxgraph.sysml.x;" vertex="1" parent="lEZ9Ktoyej2CtSF3HPmZ-28">
          <mxGeometry x="20" y="16" width="80" height="70" as="geometry" />
        </mxCell>
        <mxCell id="lEZ9Ktoyej2CtSF3HPmZ-32" value="" style="group" vertex="1" connectable="0" parent="lEZ9Ktoyej2CtSF3HPmZ-1">
          <mxGeometry x="610" y="450" width="120" height="120" as="geometry" />
        </mxCell>
        <mxCell id="lEZ9Ktoyej2CtSF3HPmZ-33" value="" style="whiteSpace=wrap;html=1;aspect=fixed;" vertex="1" parent="lEZ9Ktoyej2CtSF3HPmZ-32">
          <mxGeometry width="120" height="120" as="geometry" />
        </mxCell>
        <mxCell id="lEZ9Ktoyej2CtSF3HPmZ-34" value="" style="shape=mxgraph.sysml.x;" vertex="1" parent="lEZ9Ktoyej2CtSF3HPmZ-32">
          <mxGeometry x="20" y="16" width="80" height="70" as="geometry" />
        </mxCell>
        <mxCell id="lEZ9Ktoyej2CtSF3HPmZ-36" value="" style="group" vertex="1" connectable="0" parent="lEZ9Ktoyej2CtSF3HPmZ-1">
          <mxGeometry x="750" y="450" width="120" height="120" as="geometry" />
        </mxCell>
        <mxCell id="lEZ9Ktoyej2CtSF3HPmZ-37" value="" style="whiteSpace=wrap;html=1;aspect=fixed;" vertex="1" parent="lEZ9Ktoyej2CtSF3HPmZ-36">
          <mxGeometry width="120" height="120" as="geometry" />
        </mxCell>
        <mxCell id="lEZ9Ktoyej2CtSF3HPmZ-38" value="" style="shape=mxgraph.sysml.x;" vertex="1" parent="lEZ9Ktoyej2CtSF3HPmZ-36">
          <mxGeometry x="20" y="16" width="80" height="70" as="geometry" />
        </mxCell>
        <mxCell id="Yaoupp6idyctG9iCQ9cd-0" value="&lt;p style=&quot;line-height: 70%;&quot;&gt;&lt;font style=&quot;font-size: 11px;&quot;&gt;Filter by Face&lt;/font&gt;&lt;/p&gt;" style="html=1;shadow=0;dashed=0;shape=mxgraph.bootstrap.rrect;rSize=5;strokeColor=none;strokeWidth=1;fillColor=#0085FC;fontColor=#FFFFFF;whiteSpace=wrap;align=center;verticalAlign=middle;spacingLeft=0;fontStyle=0;fontSize=16;spacing=5;" vertex="1" parent="lEZ9Ktoyej2CtSF3HPmZ-1">
          <mxGeometry x="570" y="260" width="70" height="30" as="geometry" />
        </mxCell>
      </root>
    </mxGraphModel>
  </diagram>
  <diagram name="Admin" id="QJsrDaBp-UGmz5MWNY7u">
    <mxGraphModel dx="854" dy="588" grid="1" gridSize="10" guides="1" tooltips="1" connect="1" arrows="1" fold="1" page="1" pageScale="1" pageWidth="1169" pageHeight="827" math="0" shadow="0">
      <root>
        <mxCell id="FbB77ga0LB-VhCbjwNdt-0" />
        <mxCell id="FbB77ga0LB-VhCbjwNdt-1" parent="FbB77ga0LB-VhCbjwNdt-0" />
        <mxCell id="FbB77ga0LB-VhCbjwNdt-2" value="" style="rounded=0;whiteSpace=wrap;html=1;movable=0;resizable=0;rotatable=0;deletable=0;editable=0;locked=1;connectable=0;" vertex="1" parent="FbB77ga0LB-VhCbjwNdt-1">
          <mxGeometry x="190" y="140" width="820" height="490" as="geometry" />
        </mxCell>
        <mxCell id="FbB77ga0LB-VhCbjwNdt-3" value="" style="rounded=0;whiteSpace=wrap;html=1;" vertex="1" parent="FbB77ga0LB-VhCbjwNdt-1">
          <mxGeometry x="190" y="140" width="820" height="60" as="geometry" />
        </mxCell>
        <mxCell id="FbB77ga0LB-VhCbjwNdt-4" value="Admin Dashboard" style="text;html=1;align=center;verticalAlign=middle;whiteSpace=wrap;rounded=0;" vertex="1" parent="FbB77ga0LB-VhCbjwNdt-1">
          <mxGeometry x="420" y="220" width="100" height="30" as="geometry" />
        </mxCell>
        <mxCell id="FbB77ga0LB-VhCbjwNdt-5" value="Login" style="text;html=1;align=center;verticalAlign=middle;whiteSpace=wrap;rounded=0;" vertex="1" parent="FbB77ga0LB-VhCbjwNdt-1">
          <mxGeometry x="940" y="155" width="60" height="30" as="geometry" />
        </mxCell>
        <mxCell id="FbB77ga0LB-VhCbjwNdt-6" value="Admin" style="text;html=1;align=center;verticalAlign=middle;whiteSpace=wrap;rounded=0;" vertex="1" parent="FbB77ga0LB-VhCbjwNdt-1">
          <mxGeometry x="900" y="155" width="60" height="30" as="geometry" />
        </mxCell>
        <mxCell id="FbB77ga0LB-VhCbjwNdt-7" value="Home" style="text;html=1;align=center;verticalAlign=middle;whiteSpace=wrap;rounded=0;" vertex="1" parent="FbB77ga0LB-VhCbjwNdt-1">
          <mxGeometry x="210" y="155" width="60" height="30" as="geometry" />
        </mxCell>
        <mxCell id="AYLSlHg_2lsAO0eZ-RG6-0" value="Gallery Name" style="text;html=1;align=left;verticalAlign=middle;whiteSpace=wrap;rounded=0;fontSize=8;" vertex="1" parent="FbB77ga0LB-VhCbjwNdt-1">
          <mxGeometry x="420" y="250" width="85" height="10" as="geometry" />
        </mxCell>
        <mxCell id="AYLSlHg_2lsAO0eZ-RG6-1" value="" style="strokeWidth=1;html=1;shadow=0;dashed=0;shape=mxgraph.ios.iTextInput;strokeColor=#444444;buttonText=;fontSize=8;whiteSpace=wrap;align=left;" vertex="1" parent="FbB77ga0LB-VhCbjwNdt-1">
          <mxGeometry x="420" y="260" width="110" height="15" as="geometry" />
        </mxCell>
        <mxCell id="AYLSlHg_2lsAO0eZ-RG6-2" value="Cover Image" style="text;html=1;align=left;verticalAlign=middle;whiteSpace=wrap;rounded=0;fontSize=8;" vertex="1" parent="FbB77ga0LB-VhCbjwNdt-1">
          <mxGeometry x="420" y="277" width="85" height="10" as="geometry" />
        </mxCell>
        <mxCell id="AYLSlHg_2lsAO0eZ-RG6-3" value="" style="strokeWidth=1;html=1;shadow=0;dashed=0;shape=mxgraph.ios.iTextInput;strokeColor=#444444;buttonText=;fontSize=8;whiteSpace=wrap;align=left;" vertex="1" parent="FbB77ga0LB-VhCbjwNdt-1">
          <mxGeometry x="420" y="287" width="110" height="15" as="geometry" />
        </mxCell>
        <mxCell id="AYLSlHg_2lsAO0eZ-RG6-4" value="&lt;font style=&quot;font-size: 9px;&quot;&gt;Create Gallery&lt;/font&gt;" style="rounded=1;fillColor=#0057D8;strokeColor=none;html=1;whiteSpace=wrap;fontColor=#ffffff;align=center;verticalAlign=middle;fontStyle=0;fontSize=12;sketch=0;" vertex="1" parent="FbB77ga0LB-VhCbjwNdt-1">
          <mxGeometry x="420" y="310" width="80" height="20" as="geometry" />
        </mxCell>
        <mxCell id="AYLSlHg_2lsAO0eZ-RG6-5" value="" style="whiteSpace=wrap;html=1;aspect=fixed;" vertex="1" parent="FbB77ga0LB-VhCbjwNdt-1">
          <mxGeometry x="480" y="380" width="180" height="180" as="geometry" />
        </mxCell>
        <mxCell id="AYLSlHg_2lsAO0eZ-RG6-6" value="Gallerys" style="text;html=1;align=center;verticalAlign=middle;whiteSpace=wrap;rounded=0;" vertex="1" parent="FbB77ga0LB-VhCbjwNdt-1">
          <mxGeometry x="420" y="340" width="100" height="30" as="geometry" />
        </mxCell>
        <mxCell id="AYLSlHg_2lsAO0eZ-RG6-7" value="" style="shape=mxgraph.sysml.x;" vertex="1" parent="FbB77ga0LB-VhCbjwNdt-1">
          <mxGeometry x="505" y="400" width="135" height="130" as="geometry" />
        </mxCell>
        <mxCell id="AYLSlHg_2lsAO0eZ-RG6-8" value="&lt;font style=&quot;font-size: 10px;&quot;&gt;Delete Gallery&lt;/font&gt;" style="html=1;shadow=0;dashed=0;shape=mxgraph.bootstrap.rrect;rSize=5;strokeColor=none;strokeWidth=1;fillColor=#DB2843;fontColor=#FFFFFF;whiteSpace=wrap;align=center;verticalAlign=middle;spacingLeft=0;fontStyle=0;fontSize=16;spacing=5;" vertex="1" parent="FbB77ga0LB-VhCbjwNdt-1">
          <mxGeometry x="480" y="570" width="80" height="20" as="geometry" />
        </mxCell>
        <mxCell id="AYLSlHg_2lsAO0eZ-RG6-9" value="&lt;font style=&quot;font-size: 11px;&quot;&gt;Manage Pictures&lt;/font&gt;" style="html=1;shadow=0;dashed=0;shape=mxgraph.bootstrap.rrect;rSize=5;strokeColor=none;strokeWidth=1;fillColor=#6C767D;fontColor=#FFFFFF;whiteSpace=wrap;align=center;verticalAlign=middle;spacingLeft=0;fontStyle=0;fontSize=16;spacing=5;" vertex="1" parent="FbB77ga0LB-VhCbjwNdt-1">
          <mxGeometry x="570" y="570" width="100" height="20" as="geometry" />
        </mxCell>
      </root>
    </mxGraphModel>
  </diagram>
</mxfile>
